<svg width="111" height="21" viewBox="0 0 111 21" fill="none" xmlns="http://www.w3.org/2000/svg">
<path d="M6.24692 9.6631C8.52957 9.6631 9.65088 8.91869 9.65088 7.6526C9.65088 6.38652 8.56959 5.64211 6.24692 5.64211H2.68322V9.6631H6.24692ZM2.68322 12.6792V17.3334H0V3.33337H6.2873C10.1715 3.33337 12.4138 4.85995 12.4138 7.6526C12.4138 10.4823 10.1715 11.9718 6.2873 11.9718H3.48401H2.68322V12.6792Z" fill="#747373"/>
<path d="M20.3447 5.14497C17.407 5.14497 16.0416 7.46806 16.0416 10.3333C16.0416 13.1989 17.407 15.522 20.3447 15.522C23.2828 15.522 24.6482 13.1989 24.6482 10.3333C24.6482 7.46806 23.2828 5.14497 20.3447 5.14497V5.14497ZM20.3447 18C15.9171 18 13.1035 14.6315 13.1035 10.3333C13.1035 6.07435 15.9171 2.66663 20.3447 2.66663C24.7723 2.66663 27.5863 6.03545 27.5863 10.3333C27.5863 14.5926 24.7723 18 20.3447 18Z" fill="#747373"/>
<path d="M43.3394 15.025H51.7242V17.3334H40.6897V3.33337H43.3394V14.3176V15.025Z" fill="#747373"/>
<path d="M30.6497 15.025H39.0345V17.3334H28V3.33337H30.6497V14.3176V15.025Z" fill="#747373"/>
<path d="M65.0763 3.33337H68.5517L57.2567 17.3334H53.7813L58.1251 11.9487L58.5 11.5L52 3.33337H55.432L60.2545 9.3123L65.0763 3.33337Z" fill="#747373"/>
<path d="M84.8207 0L87.1725 1.26759L72.5585 20.6667H69.2415L84.8207 0Z" fill="#FEE250"/>
<path d="M92.7516 0L95.1034 1.26759L80.4894 20.6667H77.1724L92.7516 0Z" fill="#A5ECE8"/>
<path d="M100.683 0L103.035 1.26759L88.4206 20.6667H85.1035L100.683 0Z" fill="#EA76D0"/>
<path d="M108.614 0L110.965 1.26759L96.3515 20.6667H93.0344L108.614 0Z" fill="#9980FE"/>
</svg>
